<mxfile host="app.diagrams.net" modified="2023-05-10T09:18:31.850Z" agent="Mozilla/5.0 (Windows NT 10.0; Win64; x64; rv:109.0) Gecko/20100101 Firefox/112.0" etag="rLM_rROsMzHAXxoP5L-M" version="21.2.9" type="dropbox" pages="3">
  <diagram id="nlo6aAMlUy8kK16eHlTD" name="couleur objets">
    <mxGraphModel dx="581" dy="535" grid="1" gridSize="10" guides="1" tooltips="1" connect="1" arrows="1" fold="1" page="1" pageScale="1" pageWidth="1169" pageHeight="827" math="0" shadow="0">
      <root>
        <mxCell id="0" />
        <mxCell id="1" parent="0" />
        <mxCell id="9HaETyOGqLSXdNb30zUY-1" value="" style="shape=flexArrow;endArrow=classic;html=1;rounded=0;strokeColor=#666666;fillColor=#A3A3A3;strokeWidth=0;" parent="1" edge="1">
          <mxGeometry width="50" height="50" relative="1" as="geometry">
            <mxPoint x="160" y="396" as="sourcePoint" />
            <mxPoint x="310" y="396" as="targetPoint" />
          </mxGeometry>
        </mxCell>
        <mxCell id="9HaETyOGqLSXdNb30zUY-2" value="Absorption" style="rounded=1;whiteSpace=wrap;html=1;fillColor=#CFCFCF;fontColor=#333333;strokeColor=#666666;fontStyle=1;fontSize=14;strokeWidth=4;" parent="1" vertex="1">
          <mxGeometry x="440" y="365" width="120" height="67" as="geometry" />
        </mxCell>
        <mxCell id="9HaETyOGqLSXdNb30zUY-3" value="lumière incidente" style="text;html=1;resizable=0;autosize=1;align=center;verticalAlign=middle;points=[];fillColor=none;strokeColor=none;rounded=0;fontSize=14;fontColor=#666666;fontStyle=1" parent="1" vertex="1">
          <mxGeometry x="150" y="363" width="140" height="20" as="geometry" />
        </mxCell>
        <mxCell id="9HaETyOGqLSXdNb30zUY-5" value="" style="endArrow=classic;html=1;rounded=0;fontSize=14;fillColor=#B3B3B3;exitX=0;exitY=0;exitDx=0;exitDy=0;strokeWidth=1.5;" parent="1" source="9HaETyOGqLSXdNb30zUY-2" edge="1">
          <mxGeometry width="50" height="50" relative="1" as="geometry">
            <mxPoint x="560" y="430" as="sourcePoint" />
            <mxPoint x="400" y="330" as="targetPoint" />
          </mxGeometry>
        </mxCell>
        <mxCell id="9HaETyOGqLSXdNb30zUY-6" value="" style="endArrow=classic;html=1;rounded=0;fontSize=14;fillColor=#B3B3B3;exitX=0;exitY=0.5;exitDx=0;exitDy=0;strokeWidth=1.5;" parent="1" source="9HaETyOGqLSXdNb30zUY-2" edge="1">
          <mxGeometry width="50" height="50" relative="1" as="geometry">
            <mxPoint x="450" y="373" as="sourcePoint" />
            <mxPoint x="370" y="397" as="targetPoint" />
          </mxGeometry>
        </mxCell>
        <mxCell id="9HaETyOGqLSXdNb30zUY-7" value="" style="endArrow=classic;html=1;rounded=0;fontSize=14;fillColor=#B3B3B3;exitX=0;exitY=1;exitDx=0;exitDy=0;strokeWidth=1.5;" parent="1" source="9HaETyOGqLSXdNb30zUY-2" edge="1">
          <mxGeometry width="50" height="50" relative="1" as="geometry">
            <mxPoint x="450" y="375" as="sourcePoint" />
            <mxPoint x="400" y="470" as="targetPoint" />
          </mxGeometry>
        </mxCell>
        <mxCell id="9HaETyOGqLSXdNb30zUY-8" value="Diffusion" style="text;html=1;resizable=0;autosize=1;align=center;verticalAlign=middle;points=[];fillColor=none;strokeColor=none;rounded=0;fontSize=14;fontStyle=1" parent="1" vertex="1">
          <mxGeometry x="350" y="300" width="80" height="20" as="geometry" />
        </mxCell>
        <mxCell id="9HaETyOGqLSXdNb30zUY-9" value="" style="endArrow=classic;html=1;rounded=0;fontSize=14;strokeWidth=1;fillColor=#B3B3B3;entryX=0.5;entryY=1;entryDx=0;entryDy=0;dashed=1;exitX=0.5;exitY=-0.2;exitDx=0;exitDy=0;exitPerimeter=0;" parent="1" source="9HaETyOGqLSXdNb30zUY-10" target="9HaETyOGqLSXdNb30zUY-2" edge="1">
          <mxGeometry width="50" height="50" relative="1" as="geometry">
            <mxPoint x="500" y="490" as="sourcePoint" />
            <mxPoint x="610" y="440" as="targetPoint" />
          </mxGeometry>
        </mxCell>
        <mxCell id="9HaETyOGqLSXdNb30zUY-10" value="Objet" style="text;html=1;resizable=0;autosize=1;align=center;verticalAlign=middle;points=[];fillColor=none;strokeColor=none;rounded=0;fontSize=14;fontStyle=0" parent="1" vertex="1">
          <mxGeometry x="475" y="470" width="50" height="20" as="geometry" />
        </mxCell>
        <mxCell id="9HaETyOGqLSXdNb30zUY-12" value="" style="shape=flexArrow;endArrow=classic;html=1;rounded=0;dashed=1;fontSize=14;fontColor=#8F8F8F;strokeWidth=0;fillColor=#787878;" parent="1" edge="1">
          <mxGeometry width="50" height="50" relative="1" as="geometry">
            <mxPoint x="585" y="400" as="sourcePoint" />
            <mxPoint x="725" y="400" as="targetPoint" />
            <Array as="points">
              <mxPoint x="695" y="400" />
            </Array>
          </mxGeometry>
        </mxCell>
        <mxCell id="9HaETyOGqLSXdNb30zUY-13" value="lumière transmise" style="text;html=1;resizable=0;autosize=1;align=center;verticalAlign=middle;points=[];fillColor=none;strokeColor=none;rounded=0;fontSize=14;fontColor=#696969;fontStyle=1" parent="1" vertex="1">
          <mxGeometry x="575" y="365" width="140" height="20" as="geometry" />
        </mxCell>
      </root>
    </mxGraphModel>
  </diagram>
  <diagram id="JZcDe1UILeKKpPzHnZGp" name="niveaux energie">
    <mxGraphModel dx="581" dy="535" grid="1" gridSize="10" guides="1" tooltips="1" connect="1" arrows="1" fold="1" page="1" pageScale="1" pageWidth="1169" pageHeight="827" math="0" shadow="0">
      <root>
        <mxCell id="0" />
        <mxCell id="1" parent="0" />
        <mxCell id="B_DgzH-kIxkeDw2Dtx8Z-18" value="" style="shape=curlyBracket;whiteSpace=wrap;html=1;rounded=1;flipH=1;rotation=-180;strokeWidth=1.5;" parent="1" vertex="1">
          <mxGeometry x="170" y="185" width="20" height="190.01" as="geometry" />
        </mxCell>
        <mxCell id="B_DgzH-kIxkeDw2Dtx8Z-19" value="états excités" style="text;html=1;resizable=0;autosize=1;align=center;verticalAlign=middle;points=[];fillColor=none;strokeColor=none;rounded=0;fontStyle=1" parent="1" vertex="1">
          <mxGeometry x="70" y="270.01" width="90" height="20" as="geometry" />
        </mxCell>
        <mxCell id="B_DgzH-kIxkeDw2Dtx8Z-20" value="état fondamental" style="text;html=1;resizable=0;autosize=1;align=center;verticalAlign=middle;points=[];fillColor=none;strokeColor=none;rounded=0;fontStyle=1" parent="1" vertex="1">
          <mxGeometry x="70" y="430" width="110" height="20" as="geometry" />
        </mxCell>
        <mxCell id="B_DgzH-kIxkeDw2Dtx8Z-28" value="" style="group" parent="1" vertex="1" connectable="0">
          <mxGeometry x="654" y="140" width="160" height="310" as="geometry" />
        </mxCell>
        <mxCell id="B_DgzH-kIxkeDw2Dtx8Z-29" value="" style="endArrow=classic;html=1;rounded=0;" parent="B_DgzH-kIxkeDw2Dtx8Z-28" edge="1">
          <mxGeometry width="50" height="50" relative="1" as="geometry">
            <mxPoint x="40" y="300" as="sourcePoint" />
            <mxPoint x="40" y="20" as="targetPoint" />
          </mxGeometry>
        </mxCell>
        <mxCell id="B_DgzH-kIxkeDw2Dtx8Z-30" value="" style="group" parent="B_DgzH-kIxkeDw2Dtx8Z-28" vertex="1" connectable="0">
          <mxGeometry x="10" y="290" width="150" height="20" as="geometry" />
        </mxCell>
        <mxCell id="B_DgzH-kIxkeDw2Dtx8Z-31" value="E&lt;sub&gt;0&lt;/sub&gt;" style="text;html=1;resizable=0;autosize=1;align=center;verticalAlign=middle;points=[];fillColor=none;strokeColor=none;rounded=0;" parent="B_DgzH-kIxkeDw2Dtx8Z-30" vertex="1">
          <mxGeometry width="30" height="20" as="geometry" />
        </mxCell>
        <mxCell id="B_DgzH-kIxkeDw2Dtx8Z-32" value="" style="endArrow=none;html=1;rounded=0;" parent="B_DgzH-kIxkeDw2Dtx8Z-30" edge="1">
          <mxGeometry width="50" height="50" relative="1" as="geometry">
            <mxPoint x="30" y="9.5" as="sourcePoint" />
            <mxPoint x="150" y="10" as="targetPoint" />
          </mxGeometry>
        </mxCell>
        <mxCell id="B_DgzH-kIxkeDw2Dtx8Z-33" value="" style="group" parent="B_DgzH-kIxkeDw2Dtx8Z-28" vertex="1" connectable="0">
          <mxGeometry x="10" y="210" width="150" height="20" as="geometry" />
        </mxCell>
        <mxCell id="B_DgzH-kIxkeDw2Dtx8Z-34" value="E&lt;sub&gt;1&lt;/sub&gt;" style="text;html=1;resizable=0;autosize=1;align=center;verticalAlign=middle;points=[];fillColor=none;strokeColor=none;rounded=0;" parent="B_DgzH-kIxkeDw2Dtx8Z-33" vertex="1">
          <mxGeometry width="30" height="20" as="geometry" />
        </mxCell>
        <mxCell id="B_DgzH-kIxkeDw2Dtx8Z-35" value="" style="endArrow=none;html=1;rounded=0;" parent="B_DgzH-kIxkeDw2Dtx8Z-33" edge="1">
          <mxGeometry width="50" height="50" relative="1" as="geometry">
            <mxPoint x="30" y="9.5" as="sourcePoint" />
            <mxPoint x="150" y="10" as="targetPoint" />
          </mxGeometry>
        </mxCell>
        <mxCell id="B_DgzH-kIxkeDw2Dtx8Z-36" value="" style="group" parent="B_DgzH-kIxkeDw2Dtx8Z-28" vertex="1" connectable="0">
          <mxGeometry x="10" y="170" width="150" height="20" as="geometry" />
        </mxCell>
        <mxCell id="B_DgzH-kIxkeDw2Dtx8Z-37" value="E&lt;sub&gt;2&lt;/sub&gt;" style="text;html=1;resizable=0;autosize=1;align=center;verticalAlign=middle;points=[];fillColor=none;strokeColor=none;rounded=0;" parent="B_DgzH-kIxkeDw2Dtx8Z-36" vertex="1">
          <mxGeometry width="30" height="20" as="geometry" />
        </mxCell>
        <mxCell id="B_DgzH-kIxkeDw2Dtx8Z-38" value="" style="endArrow=none;html=1;rounded=0;" parent="B_DgzH-kIxkeDw2Dtx8Z-36" edge="1">
          <mxGeometry width="50" height="50" relative="1" as="geometry">
            <mxPoint x="30" y="9.5" as="sourcePoint" />
            <mxPoint x="150" y="10" as="targetPoint" />
          </mxGeometry>
        </mxCell>
        <mxCell id="B_DgzH-kIxkeDw2Dtx8Z-39" value="" style="group" parent="B_DgzH-kIxkeDw2Dtx8Z-28" vertex="1" connectable="0">
          <mxGeometry x="10" y="90" width="150" height="20" as="geometry" />
        </mxCell>
        <mxCell id="B_DgzH-kIxkeDw2Dtx8Z-40" value="E&lt;sub&gt;3&lt;/sub&gt;" style="text;html=1;resizable=0;autosize=1;align=center;verticalAlign=middle;points=[];fillColor=none;strokeColor=none;rounded=0;" parent="B_DgzH-kIxkeDw2Dtx8Z-39" vertex="1">
          <mxGeometry width="30" height="20" as="geometry" />
        </mxCell>
        <mxCell id="B_DgzH-kIxkeDw2Dtx8Z-41" value="" style="endArrow=none;html=1;rounded=0;" parent="B_DgzH-kIxkeDw2Dtx8Z-39" edge="1">
          <mxGeometry width="50" height="50" relative="1" as="geometry">
            <mxPoint x="30" y="9.5" as="sourcePoint" />
            <mxPoint x="150" y="10" as="targetPoint" />
          </mxGeometry>
        </mxCell>
        <mxCell id="B_DgzH-kIxkeDw2Dtx8Z-42" value="" style="endArrow=classic;html=1;dashed=1;curved=1;" parent="B_DgzH-kIxkeDw2Dtx8Z-39" edge="1">
          <mxGeometry width="50" height="50" relative="1" as="geometry">
            <mxPoint x="66" y="10" as="sourcePoint" />
            <mxPoint x="76" y="130" as="targetPoint" />
            <Array as="points">
              <mxPoint x="106" y="70" />
            </Array>
          </mxGeometry>
        </mxCell>
        <mxCell id="B_DgzH-kIxkeDw2Dtx8Z-47" value="" style="ellipse;whiteSpace=wrap;html=1;aspect=fixed;strokeWidth=1.5;strokeColor=none;fillColor=#5E5E5E;" parent="B_DgzH-kIxkeDw2Dtx8Z-39" vertex="1">
          <mxGeometry x="63" y="5" width="10" height="10" as="geometry" />
        </mxCell>
        <mxCell id="B_DgzH-kIxkeDw2Dtx8Z-43" value="" style="group" parent="B_DgzH-kIxkeDw2Dtx8Z-28" vertex="1" connectable="0">
          <mxGeometry x="10" y="50" width="150" height="20" as="geometry" />
        </mxCell>
        <mxCell id="B_DgzH-kIxkeDw2Dtx8Z-44" value="E&lt;sub&gt;n&lt;/sub&gt;" style="text;html=1;resizable=0;autosize=1;align=center;verticalAlign=middle;points=[];fillColor=none;strokeColor=none;rounded=0;" parent="B_DgzH-kIxkeDw2Dtx8Z-43" vertex="1">
          <mxGeometry width="30" height="20" as="geometry" />
        </mxCell>
        <mxCell id="B_DgzH-kIxkeDw2Dtx8Z-45" value="" style="endArrow=none;html=1;rounded=0;" parent="B_DgzH-kIxkeDw2Dtx8Z-43" edge="1">
          <mxGeometry width="50" height="50" relative="1" as="geometry">
            <mxPoint x="30" y="9.5" as="sourcePoint" />
            <mxPoint x="150" y="10" as="targetPoint" />
          </mxGeometry>
        </mxCell>
        <mxCell id="B_DgzH-kIxkeDw2Dtx8Z-46" value="Energie en eV" style="text;html=1;resizable=0;autosize=1;align=center;verticalAlign=middle;points=[];fillColor=none;strokeColor=none;rounded=0;" parent="B_DgzH-kIxkeDw2Dtx8Z-28" vertex="1">
          <mxGeometry width="90" height="20" as="geometry" />
        </mxCell>
        <mxCell id="B_DgzH-kIxkeDw2Dtx8Z-48" value="&lt;div&gt;Excitation de l&#39;atome = absorption de lumière&lt;/div&gt;" style="text;html=1;resizable=0;autosize=1;align=center;verticalAlign=middle;points=[];fillColor=none;strokeColor=none;rounded=0;fontStyle=1;fontSize=14;" parent="1" vertex="1">
          <mxGeometry x="120" y="460" width="330" height="20" as="geometry" />
        </mxCell>
        <mxCell id="B_DgzH-kIxkeDw2Dtx8Z-49" value="&lt;div&gt;Désexcitation de l&#39;atome = émission de lumière&lt;/div&gt;" style="text;html=1;resizable=0;autosize=1;align=center;verticalAlign=middle;points=[];fillColor=none;strokeColor=none;rounded=0;fontStyle=1;fontSize=14;" parent="1" vertex="1">
          <mxGeometry x="580" y="460" width="340" height="20" as="geometry" />
        </mxCell>
        <mxCell id="B_DgzH-kIxkeDw2Dtx8Z-57" value="" style="shape=image;verticalLabelPosition=bottom;verticalAlign=top;imageAspect=0;image=data:image/svg+xml,PHN2ZyB4bWw6c3BhY2U9InByZXNlcnZlIiB2aWV3Qm94PSIwIDAgMTAwMCAxMDAwIiB5PSIwcHgiIHg9IjBweCIgeG1sbnM6eGxpbms9Imh0dHA6Ly93d3cudzMub3JnLzE5OTkveGxpbmsiIHhtbG5zPSJodHRwOi8vd3d3LnczLm9yZy8yMDAwL3N2ZyIgdmVyc2lvbj0iMS4xIj4mI3hhOzxtZXRhZGF0YT4gU3ZnIFZlY3RvciBJY29ucyA6IGh0dHA6Ly93d3cub25saW5ld2ViZm9udHMuY29tL2ljb24gPC9tZXRhZGF0YT4mI3hhOzxnPjxnIHRyYW5zZm9ybT0idHJhbnNsYXRlKDAuMDAwMDAwLDUxMS4wMDAwMDApIHNjYWxlKDAuMTAwMDAwLC0wLjEwMDAwMCkiPjxwYXRoIGQ9Ik04MTk0LjMsMTc0OWMtNDIuNi0zMi45LTc1LjUtMTE4LjItNjAtMTYwLjhjNS44LTE5LjQsMzAwLjMtMzI1LjUsNjUyLjktNjc4LjFMOTQyOC40LDI2NWgtNzUxLjdjLTQzMiwwLTc2Ny4yLTcuNy03ODYuNi0xNy40Yy00MC43LTIzLjMtNjUuOS03OS40LTE5Ny42LTQzNy44Yy0xMTIuNC0zMDYuMS0yNDQuMS01NzcuMy0yNzcuMS01NjUuN2MtNTIuMywxNS41LTE2NC43LDI3NS4xLTM4OS40LDg4NS40Yy0yMTMuMSw1ODMuMS0zNzkuNyw3ODguNS02MDQuNSw3NDUuOWMtMTcwLjUtMzEtMzE1LjgtMjUzLjgtNTA5LjUtNzc0LjljLTIyMC45LTYwMi41LTMyNy40LTg0MC44LTM3OS43LTg1Ni4zYy0zNi44LTExLjYtMTcwLjUsMjczLjItMzI3LjQsNzAxLjNjLTIzMi41LDYzMy41LTMzNS4yLDgxOS41LTQ5Niw5MDAuOWMtOTMsNDguNC0xNTUsNDguNC0yNDgsMGMtMTU4LjktNzkuNC0yNDkuOS0yNDQuMS00ODIuNC04NjIuMWMtMTcyLjQtNDU3LjItMjczLjItNjg1LjgtMzE5LjctNzIyLjZjLTI1LjItMjEuMy0zNi44LTE1LjUtNzkuNCw0OC40Yy00OC40LDcxLjctMTg0LDQwMS0zMzEuMyw4MDkuOGMtMzguOCwxMDYuNi0xMTIuNCwyODIuOS0xNjQuNywzODkuNGMtMTg0LDM4MS43LTQwNC45LDQ3NC43LTYyMS45LDI1Ny43Yy05My05My0yMTctMzQ4LjctMzU0LjUtNzI2LjVjLTIwMy40LTU2My44LTMxNy43LTgxMy43LTM2Ni4yLTc5Ni4zYy00Mi42LDEzLjYtMTQ5LjIsMjQ2LTMwNC4yLDY2Mi42Yy0xODkuOSw1MTUuMy0zMDYuMSw3NjEuNC00MDQuOSw4NjAuMkM4MjguNCw5NzAuMiw2MDUuNiw4OTIuNyw0MzMuMiw1NjEuNEMzMzguMywzNzkuMywxMDAtMjU4LjEsMTAwLTMyNS45YzAtMTE0LjMsMTYwLjgtMTg2LDI0OC0xMTAuNGMyMS4zLDE3LjQsODMuMywxNTUsMTM5LjUsMzEzLjljMTIwLjEsMzM1LjIsMjgyLjksNjgzLjksMzE1LjgsNjc0LjJjNDQuNi0xNS41LDE1NS0yNTUuNywzMjUuNS03MDcuMWMyMDkuMi01NTgsMjg4LjctNzE4LjgsNDA2LjgtODI5LjJjMTQ5LjItMTM5LjUsMjkyLjUtMTM1LjYsNDM5LjgsMTEuNmMxMDIuNywxMDAuNywxOTkuNiwzMDYuMSwzOTEuNCw4MjEuNGMxNTguOSw0MjYuMiwyNzksNjg5LjcsMzIzLjUsNzAzLjNjMzQuOSw5LjcsMTk3LjYtMzQyLjksMzQ0LjgtNzUxLjdjMjA5LjItNTc1LjQsMzE5LjctNzczLDQ3Ni42LTg1Mi40YzkzLTQ4LjQsMTU1LTQ4LjQsMjQ4LDBjMTU4LjksODEuNCwyNTUuNywyNTMuOCw0OTIuMSw4ODEuNWMxNjguNiw0NDkuNSwyMjguNiw1ODksMjg2LjcsNjcyLjNsNDIuNiw2MC4xbDQ2LjUtNTYuMmM1NC4yLTY3LjgsMTU2LjktMzEwLDMyNy40LTc3M2MxOTcuNi01MzguNiwyOTQuNS03MDMuMyw0NTUuMy03ODYuNmM5NC45LTQ2LjUsMTM5LjUtNDYuNSwyNDYuMSwzLjljMTU2LjksNzcuNSwyNTMuOCwyNTMuOCw0ODguMiw4ODMuNGMxNjAuOCw0MzcuOCwyODIuOCw3MDUuMiwzMjMuNSw3MTYuOGM0Ni41LDE1LjUsMTY0LjctMjQwLjIsMzgxLjctODM2LjljMTg2LTUxMS41LDMyMy41LTczMC40LDQ4NC4zLTc4NC42YzIzNi4zLTc3LjUsNDA4LjgsMTI1LjksNjQ5LDc2NS4zbDkzLDI1MS45bDY3Ni4xLDUuOGw2NzYuMSwzLjlsLTY0MS4zLTY0My4yYy0zNTIuNi0zNTQuNS02NDcuMS02NjAuNi02NTIuOS02ODBjLTE1LjUtNDIuNiwxNy40LTEyNy45LDYwLTE2MC44YzE3LjUtMTUuNSw2MC4xLTI3LjEsOTEuMS0yNy4xYzUwLjQsMCwxNTEuMSw5Myw4MTkuNSw3NjEuNGM1ODEuMiw1ODEuMiw3NjMuMyw3NzQuOSw3NzguOCw4MjcuMmM0NC42LDE1Ni45LDU2LjIsMTQzLjQtNzcxLjEsOTc0LjVjLTY3Ni4yLDY3Ni4xLTc3NC45LDc2OS4xLTgyNy4yLDc2OS4xQzgyNTQuNCwxNzc2LjEsODIxMS43LDE3NjQuNSw4MTk0LjMsMTc0OXoiLz48L2c+PC9nPiYjeGE7PC9zdmc+;fontSize=14;strokeWidth=1.5;fillColor=#5E5E5E;rotation=0;" parent="1" vertex="1">
          <mxGeometry x="759" y="270.44" width="100" height="50" as="geometry" />
        </mxCell>
        <mxCell id="B_DgzH-kIxkeDw2Dtx8Z-1" value="" style="endArrow=classic;html=1;rounded=0;" parent="1" edge="1">
          <mxGeometry width="50" height="50" relative="1" as="geometry">
            <mxPoint x="240" y="440" as="sourcePoint" />
            <mxPoint x="240" y="160" as="targetPoint" />
          </mxGeometry>
        </mxCell>
        <mxCell id="B_DgzH-kIxkeDw2Dtx8Z-4" value="" style="group" parent="1" vertex="1" connectable="0">
          <mxGeometry x="210" y="430" width="150" height="20" as="geometry" />
        </mxCell>
        <mxCell id="B_DgzH-kIxkeDw2Dtx8Z-2" value="E&lt;sub&gt;0&lt;/sub&gt;" style="text;html=1;resizable=0;autosize=1;align=center;verticalAlign=middle;points=[];fillColor=none;strokeColor=none;rounded=0;" parent="B_DgzH-kIxkeDw2Dtx8Z-4" vertex="1">
          <mxGeometry width="30" height="20" as="geometry" />
        </mxCell>
        <mxCell id="B_DgzH-kIxkeDw2Dtx8Z-3" value="" style="endArrow=none;html=1;rounded=0;" parent="B_DgzH-kIxkeDw2Dtx8Z-4" edge="1">
          <mxGeometry width="50" height="50" relative="1" as="geometry">
            <mxPoint x="30" y="9.5" as="sourcePoint" />
            <mxPoint x="150" y="10" as="targetPoint" />
          </mxGeometry>
        </mxCell>
        <mxCell id="B_DgzH-kIxkeDw2Dtx8Z-5" value="" style="group" parent="1" vertex="1" connectable="0">
          <mxGeometry x="210" y="350" width="150" height="20" as="geometry" />
        </mxCell>
        <mxCell id="B_DgzH-kIxkeDw2Dtx8Z-6" value="E&lt;sub&gt;1&lt;/sub&gt;" style="text;html=1;resizable=0;autosize=1;align=center;verticalAlign=middle;points=[];fillColor=none;strokeColor=none;rounded=0;" parent="B_DgzH-kIxkeDw2Dtx8Z-5" vertex="1">
          <mxGeometry width="30" height="20" as="geometry" />
        </mxCell>
        <mxCell id="B_DgzH-kIxkeDw2Dtx8Z-7" value="" style="endArrow=none;html=1;rounded=0;" parent="B_DgzH-kIxkeDw2Dtx8Z-5" edge="1">
          <mxGeometry width="50" height="50" relative="1" as="geometry">
            <mxPoint x="30" y="9.5" as="sourcePoint" />
            <mxPoint x="150" y="10" as="targetPoint" />
          </mxGeometry>
        </mxCell>
        <mxCell id="B_DgzH-kIxkeDw2Dtx8Z-8" value="" style="group" parent="1" vertex="1" connectable="0">
          <mxGeometry x="210" y="310" width="150" height="20" as="geometry" />
        </mxCell>
        <mxCell id="B_DgzH-kIxkeDw2Dtx8Z-9" value="E&lt;sub&gt;2&lt;/sub&gt;" style="text;html=1;resizable=0;autosize=1;align=center;verticalAlign=middle;points=[];fillColor=none;strokeColor=none;rounded=0;" parent="B_DgzH-kIxkeDw2Dtx8Z-8" vertex="1">
          <mxGeometry width="30" height="20" as="geometry" />
        </mxCell>
        <mxCell id="B_DgzH-kIxkeDw2Dtx8Z-10" value="" style="endArrow=none;html=1;rounded=0;" parent="B_DgzH-kIxkeDw2Dtx8Z-8" edge="1">
          <mxGeometry width="50" height="50" relative="1" as="geometry">
            <mxPoint x="30" y="9.5" as="sourcePoint" />
            <mxPoint x="150" y="10" as="targetPoint" />
          </mxGeometry>
        </mxCell>
        <mxCell id="B_DgzH-kIxkeDw2Dtx8Z-11" value="" style="group" parent="1" vertex="1" connectable="0">
          <mxGeometry x="210" y="230" width="150" height="20" as="geometry" />
        </mxCell>
        <mxCell id="B_DgzH-kIxkeDw2Dtx8Z-12" value="E&lt;sub&gt;3&lt;/sub&gt;" style="text;html=1;resizable=0;autosize=1;align=center;verticalAlign=middle;points=[];fillColor=none;strokeColor=none;rounded=0;" parent="B_DgzH-kIxkeDw2Dtx8Z-11" vertex="1">
          <mxGeometry width="30" height="20" as="geometry" />
        </mxCell>
        <mxCell id="B_DgzH-kIxkeDw2Dtx8Z-13" value="" style="endArrow=none;html=1;rounded=0;" parent="B_DgzH-kIxkeDw2Dtx8Z-11" edge="1">
          <mxGeometry width="50" height="50" relative="1" as="geometry">
            <mxPoint x="30" y="9.5" as="sourcePoint" />
            <mxPoint x="150" y="10" as="targetPoint" />
          </mxGeometry>
        </mxCell>
        <mxCell id="B_DgzH-kIxkeDw2Dtx8Z-27" value="" style="endArrow=classic;html=1;dashed=1;curved=1;" parent="B_DgzH-kIxkeDw2Dtx8Z-11" edge="1">
          <mxGeometry width="50" height="50" relative="1" as="geometry">
            <mxPoint x="70" y="130" as="sourcePoint" />
            <mxPoint x="70" y="10" as="targetPoint" />
            <Array as="points">
              <mxPoint x="90" y="70" />
            </Array>
          </mxGeometry>
        </mxCell>
        <mxCell id="B_DgzH-kIxkeDw2Dtx8Z-14" value="" style="group" parent="1" vertex="1" connectable="0">
          <mxGeometry x="210" y="190" width="150" height="20" as="geometry" />
        </mxCell>
        <mxCell id="B_DgzH-kIxkeDw2Dtx8Z-15" value="E&lt;sub&gt;n&lt;/sub&gt;" style="text;html=1;resizable=0;autosize=1;align=center;verticalAlign=middle;points=[];fillColor=none;strokeColor=none;rounded=0;" parent="B_DgzH-kIxkeDw2Dtx8Z-14" vertex="1">
          <mxGeometry width="30" height="20" as="geometry" />
        </mxCell>
        <mxCell id="B_DgzH-kIxkeDw2Dtx8Z-16" value="" style="endArrow=none;html=1;rounded=0;" parent="B_DgzH-kIxkeDw2Dtx8Z-14" edge="1">
          <mxGeometry width="50" height="50" relative="1" as="geometry">
            <mxPoint x="30" y="9.5" as="sourcePoint" />
            <mxPoint x="150" y="10" as="targetPoint" />
          </mxGeometry>
        </mxCell>
        <mxCell id="B_DgzH-kIxkeDw2Dtx8Z-17" value="Energie en eV" style="text;html=1;resizable=0;autosize=1;align=center;verticalAlign=middle;points=[];fillColor=none;strokeColor=none;rounded=0;" parent="1" vertex="1">
          <mxGeometry x="200" y="140" width="90" height="20" as="geometry" />
        </mxCell>
        <mxCell id="B_DgzH-kIxkeDw2Dtx8Z-21" value="" style="ellipse;whiteSpace=wrap;html=1;aspect=fixed;strokeWidth=1.5;strokeColor=none;fillColor=#5E5E5E;" parent="1" vertex="1">
          <mxGeometry x="276" y="355" width="10" height="10" as="geometry" />
        </mxCell>
        <mxCell id="B_DgzH-kIxkeDw2Dtx8Z-52" value="" style="shape=image;verticalLabelPosition=bottom;verticalAlign=top;imageAspect=0;image=data:image/svg+xml,PHN2ZyB4bWw6c3BhY2U9InByZXNlcnZlIiB2aWV3Qm94PSIwIDAgMTAwMCAxMDAwIiB5PSIwcHgiIHg9IjBweCIgeG1sbnM6eGxpbms9Imh0dHA6Ly93d3cudzMub3JnLzE5OTkveGxpbmsiIHhtbG5zPSJodHRwOi8vd3d3LnczLm9yZy8yMDAwL3N2ZyIgdmVyc2lvbj0iMS4xIj4mI3hhOzxtZXRhZGF0YT4gU3ZnIFZlY3RvciBJY29ucyA6IGh0dHA6Ly93d3cub25saW5ld2ViZm9udHMuY29tL2ljb24gPC9tZXRhZGF0YT4mI3hhOzxnPjxnIHRyYW5zZm9ybT0idHJhbnNsYXRlKDAuMDAwMDAwLDUxMS4wMDAwMDApIHNjYWxlKDAuMTAwMDAwLC0wLjEwMDAwMCkiPjxwYXRoIGQ9Ik04MTk0LjMsMTc0OWMtNDIuNi0zMi45LTc1LjUtMTE4LjItNjAtMTYwLjhjNS44LTE5LjQsMzAwLjMtMzI1LjUsNjUyLjktNjc4LjFMOTQyOC40LDI2NWgtNzUxLjdjLTQzMiwwLTc2Ny4yLTcuNy03ODYuNi0xNy40Yy00MC43LTIzLjMtNjUuOS03OS40LTE5Ny42LTQzNy44Yy0xMTIuNC0zMDYuMS0yNDQuMS01NzcuMy0yNzcuMS01NjUuN2MtNTIuMywxNS41LTE2NC43LDI3NS4xLTM4OS40LDg4NS40Yy0yMTMuMSw1ODMuMS0zNzkuNyw3ODguNS02MDQuNSw3NDUuOWMtMTcwLjUtMzEtMzE1LjgtMjUzLjgtNTA5LjUtNzc0LjljLTIyMC45LTYwMi41LTMyNy40LTg0MC44LTM3OS43LTg1Ni4zYy0zNi44LTExLjYtMTcwLjUsMjczLjItMzI3LjQsNzAxLjNjLTIzMi41LDYzMy41LTMzNS4yLDgxOS41LTQ5Niw5MDAuOWMtOTMsNDguNC0xNTUsNDguNC0yNDgsMGMtMTU4LjktNzkuNC0yNDkuOS0yNDQuMS00ODIuNC04NjIuMWMtMTcyLjQtNDU3LjItMjczLjItNjg1LjgtMzE5LjctNzIyLjZjLTI1LjItMjEuMy0zNi44LTE1LjUtNzkuNCw0OC40Yy00OC40LDcxLjctMTg0LDQwMS0zMzEuMyw4MDkuOGMtMzguOCwxMDYuNi0xMTIuNCwyODIuOS0xNjQuNywzODkuNGMtMTg0LDM4MS43LTQwNC45LDQ3NC43LTYyMS45LDI1Ny43Yy05My05My0yMTctMzQ4LjctMzU0LjUtNzI2LjVjLTIwMy40LTU2My44LTMxNy43LTgxMy43LTM2Ni4yLTc5Ni4zYy00Mi42LDEzLjYtMTQ5LjIsMjQ2LTMwNC4yLDY2Mi42Yy0xODkuOSw1MTUuMy0zMDYuMSw3NjEuNC00MDQuOSw4NjAuMkM4MjguNCw5NzAuMiw2MDUuNiw4OTIuNyw0MzMuMiw1NjEuNEMzMzguMywzNzkuMywxMDAtMjU4LjEsMTAwLTMyNS45YzAtMTE0LjMsMTYwLjgtMTg2LDI0OC0xMTAuNGMyMS4zLDE3LjQsODMuMywxNTUsMTM5LjUsMzEzLjljMTIwLjEsMzM1LjIsMjgyLjksNjgzLjksMzE1LjgsNjc0LjJjNDQuNi0xNS41LDE1NS0yNTUuNywzMjUuNS03MDcuMWMyMDkuMi01NTgsMjg4LjctNzE4LjgsNDA2LjgtODI5LjJjMTQ5LjItMTM5LjUsMjkyLjUtMTM1LjYsNDM5LjgsMTEuNmMxMDIuNywxMDAuNywxOTkuNiwzMDYuMSwzOTEuNCw4MjEuNGMxNTguOSw0MjYuMiwyNzksNjg5LjcsMzIzLjUsNzAzLjNjMzQuOSw5LjcsMTk3LjYtMzQyLjksMzQ0LjgtNzUxLjdjMjA5LjItNTc1LjQsMzE5LjctNzczLDQ3Ni42LTg1Mi40YzkzLTQ4LjQsMTU1LTQ4LjQsMjQ4LDBjMTU4LjksODEuNCwyNTUuNywyNTMuOCw0OTIuMSw4ODEuNWMxNjguNiw0NDkuNSwyMjguNiw1ODksMjg2LjcsNjcyLjNsNDIuNiw2MC4xbDQ2LjUtNTYuMmM1NC4yLTY3LjgsMTU2LjktMzEwLDMyNy40LTc3M2MxOTcuNi01MzguNiwyOTQuNS03MDMuMyw0NTUuMy03ODYuNmM5NC45LTQ2LjUsMTM5LjUtNDYuNSwyNDYuMSwzLjljMTU2LjksNzcuNSwyNTMuOCwyNTMuOCw0ODguMiw4ODMuNGMxNjAuOCw0MzcuOCwyODIuOCw3MDUuMiwzMjMuNSw3MTYuOGM0Ni41LDE1LjUsMTY0LjctMjQwLjIsMzgxLjctODM2LjljMTg2LTUxMS41LDMyMy41LTczMC40LDQ4NC4zLTc4NC42YzIzNi4zLTc3LjUsNDA4LjgsMTI1LjksNjQ5LDc2NS4zbDkzLDI1MS45bDY3Ni4xLDUuOGw2NzYuMSwzLjlsLTY0MS4zLTY0My4yYy0zNTIuNi0zNTQuNS02NDcuMS02NjAuNi02NTIuOS02ODBjLTE1LjUtNDIuNiwxNy40LTEyNy45LDYwLTE2MC44YzE3LjUtMTUuNSw2MC4xLTI3LjEsOTEuMS0yNy4xYzUwLjQsMCwxNTEuMSw5Myw4MTkuNSw3NjEuNGM1ODEuMiw1ODEuMiw3NjMuMyw3NzQuOSw3NzguOCw4MjcuMmM0NC42LDE1Ni45LDU2LjIsMTQzLjQtNzcxLjEsOTc0LjVjLTY3Ni4yLDY3Ni4xLTc3NC45LDc2OS4xLTgyNy4yLDc2OS4xQzgyNTQuNCwxNzc2LjEsODIxMS43LDE3NjQuNSw4MTk0LjMsMTc0OXoiLz48L2c+PC9nPiYjeGE7PC9zdmc+;fontSize=14;strokeWidth=1.5;fillColor=#5E5E5E;rotation=-179;" parent="1" vertex="1">
          <mxGeometry x="300" y="270.44" width="100" height="50" as="geometry" />
        </mxCell>
        <mxCell id="B_DgzH-kIxkeDw2Dtx8Z-54" value="photon" style="text;html=1;resizable=0;autosize=1;align=center;verticalAlign=middle;points=[];fillColor=none;strokeColor=none;rounded=0;fontSize=15;fontFamily=Garamond;fontStyle=1" parent="1" vertex="1">
          <mxGeometry x="315" y="265.44" width="70" height="30" as="geometry" />
        </mxCell>
        <mxCell id="uRUpKfz_LW1VfgtFMO3E-1" value="photon" style="text;html=1;resizable=0;autosize=1;align=center;verticalAlign=middle;points=[];fillColor=none;strokeColor=none;rounded=0;fontSize=15;fontFamily=Garamond;fontStyle=1" vertex="1" parent="1">
          <mxGeometry x="774" y="270" width="70" height="30" as="geometry" />
        </mxCell>
      </root>
    </mxGraphModel>
  </diagram>
  <diagram id="8z2U5-GjQZW-0txC4VZD" name="Page-3">
    <mxGraphModel dx="1422" dy="791" grid="1" gridSize="10" guides="1" tooltips="1" connect="1" arrows="1" fold="1" page="1" pageScale="1" pageWidth="1169" pageHeight="827" math="0" shadow="0">
      <root>
        <mxCell id="0" />
        <mxCell id="1" parent="0" />
        <mxCell id="AtAKimU2Tgd04BdNi97M-2" value="" style="endArrow=classic;html=1;fontFamily=Garamond;fontSize=30;strokeColor=#1A1A1A;strokeWidth=2;curved=1;" edge="1" parent="1">
          <mxGeometry width="50" height="50" relative="1" as="geometry">
            <mxPoint x="320" y="440" as="sourcePoint" />
            <mxPoint x="320" y="240" as="targetPoint" />
          </mxGeometry>
        </mxCell>
        <mxCell id="AtAKimU2Tgd04BdNi97M-3" value="&lt;font style=&quot;font-size: 20px;&quot; face=&quot;Helvetica&quot;&gt;T&lt;/font&gt;" style="text;html=1;resizable=0;autosize=1;align=center;verticalAlign=middle;points=[];fillColor=none;strokeColor=none;rounded=0;fontFamily=Garamond;fontSize=30;" vertex="1" parent="1">
          <mxGeometry x="300" y="200" width="30" height="40" as="geometry" />
        </mxCell>
        <mxCell id="AtAKimU2Tgd04BdNi97M-4" value="" style="endArrow=classic;html=1;fontFamily=Garamond;fontSize=30;strokeColor=#1A1A1A;strokeWidth=2;curved=1;" edge="1" parent="1">
          <mxGeometry width="50" height="50" relative="1" as="geometry">
            <mxPoint x="400" y="240" as="sourcePoint" />
            <mxPoint x="400" y="440" as="targetPoint" />
            <Array as="points">
              <mxPoint x="400" y="330" />
            </Array>
          </mxGeometry>
        </mxCell>
        <mxCell id="AtAKimU2Tgd04BdNi97M-5" value="&lt;font style=&quot;font-size: 20px;&quot; face=&quot;Helvetica&quot;&gt;A&lt;/font&gt;" style="text;html=1;resizable=0;autosize=1;align=center;verticalAlign=middle;points=[];fillColor=none;strokeColor=none;rounded=0;fontFamily=Garamond;fontSize=30;" vertex="1" parent="1">
          <mxGeometry x="390" y="200" width="30" height="40" as="geometry" />
        </mxCell>
        <mxCell id="AtAKimU2Tgd04BdNi97M-6" value="1" style="text;html=1;resizable=0;autosize=1;align=center;verticalAlign=middle;points=[];fillColor=none;strokeColor=none;rounded=0;fontFamily=Helvetica;fontSize=15;" vertex="1" parent="1">
          <mxGeometry x="290" y="265" width="20" height="20" as="geometry" />
        </mxCell>
        <mxCell id="AtAKimU2Tgd04BdNi97M-8" value="0.1" style="text;html=1;resizable=0;autosize=1;align=center;verticalAlign=middle;points=[];fillColor=none;strokeColor=none;rounded=0;fontFamily=Helvetica;fontSize=15;" vertex="1" parent="1">
          <mxGeometry x="280" y="320" width="40" height="20" as="geometry" />
        </mxCell>
        <mxCell id="AtAKimU2Tgd04BdNi97M-9" value="0" style="text;html=1;resizable=0;autosize=1;align=center;verticalAlign=middle;points=[];fillColor=none;strokeColor=none;rounded=0;fontFamily=Helvetica;fontSize=15;" vertex="1" parent="1">
          <mxGeometry x="400" y="265" width="20" height="20" as="geometry" />
        </mxCell>
        <mxCell id="AtAKimU2Tgd04BdNi97M-10" value="0.01" style="text;html=1;resizable=0;autosize=1;align=center;verticalAlign=middle;points=[];fillColor=none;strokeColor=none;rounded=0;fontFamily=Helvetica;fontSize=15;" vertex="1" parent="1">
          <mxGeometry x="280" y="380" width="40" height="20" as="geometry" />
        </mxCell>
        <mxCell id="AtAKimU2Tgd04BdNi97M-11" value="1" style="text;html=1;resizable=0;autosize=1;align=center;verticalAlign=middle;points=[];fillColor=none;strokeColor=none;rounded=0;fontFamily=Helvetica;fontSize=15;" vertex="1" parent="1">
          <mxGeometry x="400" y="320" width="20" height="20" as="geometry" />
        </mxCell>
        <mxCell id="AtAKimU2Tgd04BdNi97M-12" value="2" style="text;html=1;resizable=0;autosize=1;align=center;verticalAlign=middle;points=[];fillColor=none;strokeColor=none;rounded=0;fontFamily=Helvetica;fontSize=15;" vertex="1" parent="1">
          <mxGeometry x="400" y="380" width="20" height="20" as="geometry" />
        </mxCell>
        <mxCell id="AtAKimU2Tgd04BdNi97M-13" value="" style="endArrow=classic;html=1;fontFamily=Helvetica;fontSize=15;strokeColor=#1A1A1A;strokeWidth=2;curved=1;dashed=1;exitX=0.025;exitY=0.75;exitDx=0;exitDy=0;exitPerimeter=0;entryX=0.025;entryY=0.8;entryDx=0;entryDy=0;entryPerimeter=0;" edge="1" parent="1" source="AtAKimU2Tgd04BdNi97M-8" target="AtAKimU2Tgd04BdNi97M-10">
          <mxGeometry width="50" height="50" relative="1" as="geometry">
            <mxPoint x="270" y="350" as="sourcePoint" />
            <mxPoint x="270" y="390" as="targetPoint" />
            <Array as="points">
              <mxPoint x="250" y="360" />
            </Array>
          </mxGeometry>
        </mxCell>
        <mxCell id="AtAKimU2Tgd04BdNi97M-14" value="/10" style="text;html=1;resizable=0;autosize=1;align=center;verticalAlign=middle;points=[];fillColor=none;strokeColor=none;rounded=0;fontFamily=Helvetica;fontSize=15;" vertex="1" parent="1">
          <mxGeometry x="220" y="350" width="40" height="20" as="geometry" />
        </mxCell>
        <mxCell id="AtAKimU2Tgd04BdNi97M-15" value="" style="endArrow=classic;html=1;fontFamily=Helvetica;fontSize=15;strokeColor=#1A1A1A;strokeWidth=2;curved=1;dashed=1;entryX=1;entryY=0.75;entryDx=0;entryDy=0;entryPerimeter=0;" edge="1" parent="1" target="AtAKimU2Tgd04BdNi97M-12">
          <mxGeometry width="50" height="50" relative="1" as="geometry">
            <mxPoint x="420" y="340" as="sourcePoint" />
            <mxPoint x="430" y="400" as="targetPoint" />
            <Array as="points">
              <mxPoint x="420" y="340" />
              <mxPoint x="450" y="360" />
            </Array>
          </mxGeometry>
        </mxCell>
        <mxCell id="AtAKimU2Tgd04BdNi97M-16" value="+ 1" style="text;html=1;resizable=0;autosize=1;align=center;verticalAlign=middle;points=[];fillColor=none;strokeColor=none;rounded=0;fontFamily=Helvetica;fontSize=15;" vertex="1" parent="1">
          <mxGeometry x="440" y="360" width="40" height="20" as="geometry" />
        </mxCell>
        <mxCell id="AtAKimU2Tgd04BdNi97M-18" value="+ 1" style="text;html=1;resizable=0;autosize=1;align=center;verticalAlign=middle;points=[];fillColor=none;strokeColor=none;rounded=0;fontFamily=Helvetica;fontSize=15;" vertex="1" parent="1">
          <mxGeometry x="440" y="290" width="40" height="20" as="geometry" />
        </mxCell>
        <mxCell id="AtAKimU2Tgd04BdNi97M-19" value="" style="endArrow=classic;html=1;fontFamily=Helvetica;fontSize=15;strokeColor=#1A1A1A;strokeWidth=2;curved=1;dashed=1;entryX=1;entryY=0.75;entryDx=0;entryDy=0;entryPerimeter=0;" edge="1" parent="1">
          <mxGeometry width="50" height="50" relative="1" as="geometry">
            <mxPoint x="422" y="277" as="sourcePoint" />
            <mxPoint x="422" y="332" as="targetPoint" />
            <Array as="points">
              <mxPoint x="422" y="277" />
              <mxPoint x="452" y="297" />
            </Array>
          </mxGeometry>
        </mxCell>
        <mxCell id="AtAKimU2Tgd04BdNi97M-22" value="" style="endArrow=classic;html=1;fontFamily=Helvetica;fontSize=15;strokeColor=#1A1A1A;strokeWidth=2;curved=1;dashed=1;exitX=0.025;exitY=0.75;exitDx=0;exitDy=0;exitPerimeter=0;entryX=0.025;entryY=0.8;entryDx=0;entryDy=0;entryPerimeter=0;" edge="1" parent="1">
          <mxGeometry width="50" height="50" relative="1" as="geometry">
            <mxPoint x="281" y="270" as="sourcePoint" />
            <mxPoint x="281" y="331" as="targetPoint" />
            <Array as="points">
              <mxPoint x="250" y="295" />
            </Array>
          </mxGeometry>
        </mxCell>
        <mxCell id="AtAKimU2Tgd04BdNi97M-23" value="/10" style="text;html=1;resizable=0;autosize=1;align=center;verticalAlign=middle;points=[];fillColor=none;strokeColor=none;rounded=0;fontFamily=Helvetica;fontSize=15;" vertex="1" parent="1">
          <mxGeometry x="220" y="285" width="40" height="20" as="geometry" />
        </mxCell>
      </root>
    </mxGraphModel>
  </diagram>
</mxfile>
